<!-- Generator: Adobe Illustrator 19.2.1, SVG Export Plug-In  -->
<svg version="1.1"
	 xmlns="http://www.w3.org/2000/svg" xmlns:xlink="http://www.w3.org/1999/xlink" xmlns:a="http://ns.adobe.com/AdobeSVGViewerExtensions/3.0/"
	 x="0px" y="0px" width="962px" height="239.6px" viewBox="0 0 962 239.6"
	 style="overflow:scroll;enable-background:new 0 0 962 239.6;" xml:space="preserve">
<defs>
</defs>
<g>
	<g>
		<path d="M0,239.6c22.8-13.3,45.5-26.6,68.3-39.9V41.2L0,82.4V239.6z"/>
		<path d="M244.1,62.8L136.6,0L68.3,41.2c35.7,20.5,71.4,41,107.1,61.6c18.3,10.5,29.6,30,29.6,51.1l0,0c0,20.3-22,32.9-39.5,22.7
			l-28.8-16.9v79.9l136.6-79.9v-46C273.3,92.7,262.2,73.4,244.1,62.8z"/>
	</g>
	<g>
		<path d="M376.7,69.1c22.8,0,35.9,11.3,35.9,31c0,20.5-13.1,32.4-35.9,32.4h-20.9v27.3h-15.3V69.1H376.7z M355.9,118.7h20.2
			c14,0,21.9-6,21.9-18.3c0-11.9-7.9-17.6-21.9-17.6h-20.2V118.7z"/>
		<path d="M441.7,104.5c4.7-9.3,13-14.2,23.8-14.2v14.2c-13.9-0.8-22.7,7.4-23.8,19.2v36h-14.9V90.8h14.9V104.5z"/>
		<path d="M543.3,125.3c0,20.7-14.6,35-35.9,35c-21.4,0-36-14.2-36-35c0-20.9,14.6-35,36-35C528.6,90.3,543.3,104.4,543.3,125.3z
			 M486.3,125.4c0,13.3,8.7,22.4,21.1,22.4c12.3,0,21-9.1,21-22.4c0-13.2-8.7-22.3-21-22.3C495,103.1,486.3,112.2,486.3,125.4z"/>
		<path d="M573.4,161.7c0,16.3-11.3,23.8-22.3,23.8c-5.2,0-10.4-1.7-14.4-4.7l4.9-11.5c2.7,1.9,6,3.1,8.8,3.1c4.5,0,8.2-2.7,8.2-9.3
			V90.8h14.8V161.7z M575.3,71.1c0,5.2-3.8,9.1-9.2,9.1c-5.2,0-9.1-3.9-9.1-9.1c0-5.3,3.9-9.1,9.1-9.1
			C571.5,62.1,575.3,65.8,575.3,71.1z"/>
		<path d="M656.6,131h-52.1c2.3,10.6,10.5,17.2,21.4,17.2c7.5,0,14.4-2.8,19.4-8l7.9,8.4c-6.7,7.4-16.6,11.7-28.5,11.7
			c-21.2,0-35.2-14.1-35.2-34.8c0-20.9,14.4-35,34.8-35.1C648.6,90.3,658.4,106.1,656.6,131z M643.6,120.1
			c-0.5-11.1-7.9-17.9-19.2-17.9c-10.9,0-18.5,6.9-20.2,17.9H643.6z"/>
		<path d="M728.9,101.6l-8.2,9.6c-4.8-4.9-11.4-7.9-19.7-7.8c-11.9,0-20.5,8.9-20.5,22c0,13.1,8.5,22,20.5,22
			c8.7,0,15.7-2.8,20.3-8.3l8.3,8.3c-6.2,8.2-16.2,12.8-29.3,12.8c-20.5,0-34.7-14.1-34.7-34.8c0-20.9,14.2-35.1,34.7-35.1
			C712.8,90.3,722.5,94.3,728.9,101.6z"/>
		<path d="M784.2,155.3c-5.4,3.2-11.1,5.1-17,5.1c-10.4,0-19.3-6-19.3-20.1v-35.7h-9.7V93.4h9.7V74.5h14.8v18.9H783v11.1h-20.3v33
			c0,7.1,2.7,9.3,7.4,9.3c3.1,0,6.3-1,10.4-3L784.2,155.3z"/>
		<path d="M843.3,105.7c11.4,2.7,19.8,11.5,19.8,25.1c0,17.7-14.2,30.2-36.3,30.2c-13.6,0-27.8-4.8-36.6-12l11.9-22.8
			c6.9,8.4,14.4,12.7,22.3,12.7c6.2,0,9.3-2.6,9.3-7.9c0-5.3-3.1-7.9-9.3-7.9H808v-15.7l17.2-16.4H795V69.2h64V86l-19.6,18.8
			L843.3,105.7z"/>
		<path d="M912.6,68.9c29.9,0,49.3,17.7,49.3,45.3s-19.8,45.5-50.5,45.5h-39.4V68.9H912.6z M902.1,136.4h11.3
			c10.9,0,17.9-8.5,17.9-21.9c0-13.5-7.6-22.3-19.3-22.3h-9.8V136.4z"/>
	</g>
</g>
</svg>



