<!-- Generator: Adobe Illustrator 19.2.1, SVG Export Plug-In  -->
<svg version="1.1"
	 xmlns="http://www.w3.org/2000/svg" xmlns:xlink="http://www.w3.org/1999/xlink" xmlns:a="http://ns.adobe.com/AdobeSVGViewerExtensions/3.0/"
	 x="0px" y="0px" width="785.8px" height="889.2px" viewBox="0 0 785.8 889.2"
	 style="overflow:scroll;enable-background:new 0 0 785.8 889.2;" xml:space="preserve">
<defs>
</defs>
<g>
	<g>
		<path d="M0,688.9c65.5-38.3,131-76.5,196.4-114.8V118.5L0,237V688.9z"/>
		<path d="M701.8,180.5L392.9,0L196.4,118.5c102.6,59,205.2,118,307.8,177c52.6,30.3,85.1,86.3,85.1,147l0,0
			c0,58.3-63.2,94.6-113.5,65.2l-82.9-48.5v229.6l392.9-229.6V327C785.8,266.7,753.8,210.9,701.8,180.5z"/>
	</g>
	<g>
		<path d="M45.7,741.9c28.8,0,45.4,14.2,45.4,39.1c0,25.9-16.5,40.9-45.4,40.9H19.3v34.6H0V741.9H45.7z M19.3,804.7h25.5
			c17.7,0,27.7-7.5,27.7-23.1c0-15.1-10-22.3-27.7-22.3H19.3V804.7z"/>
		<path d="M127.9,786.8c5.9-11.8,16.4-18,30.1-18v18c-17.5-1-28.7,9.3-30.1,24.2v45.5h-18.8v-87.1h18.8V786.8z"/>
		<path d="M256.3,813c0,26.2-18.5,44.2-45.4,44.2c-27,0-45.5-18-45.5-44.2c0-26.4,18.5-44.2,45.5-44.2
			C237.8,768.8,256.3,786.6,256.3,813z M184.3,813.2c0,16.9,11,28.3,26.7,28.3c15.6,0,26.5-11.5,26.5-28.3c0-16.7-11-28.2-26.5-28.2
			C195.2,785,184.3,796.5,184.3,813.2z"/>
		<path d="M294.5,859c0,20.6-14.2,30.1-28.2,30.1c-6.5,0-13.1-2.1-18.2-5.9l6.2-14.6c3.4,2.5,7.5,3.9,11.1,3.9
			c5.7,0,10.3-3.4,10.3-11.8v-91.4h18.7V859z M296.8,744.6c0,6.6-4.7,11.5-11.6,11.5c-6.5,0-11.5-4.9-11.5-11.5
			c0-6.7,4.9-11.5,11.5-11.5C292,733.1,296.8,737.8,296.8,744.6z"/>
		<path d="M399.6,820.2h-65.8c2.9,13.4,13.3,21.8,27,21.8c9.5,0,18.2-3.6,24.6-10.2l10,10.6c-8.5,9.3-21,14.7-36,14.7
			c-26.9,0-44.5-17.9-44.5-44.1c0-26.4,18.2-44.2,44.1-44.4C389.5,768.8,401.9,788.8,399.6,820.2z M383.3,806.5
			c-0.7-14.1-10-22.6-24.2-22.6c-13.8,0-23.4,8.7-25.5,22.6H383.3z"/>
		<path d="M491,783l-10.3,12.1c-6.1-6.2-14.4-10-24.9-9.8c-15.1,0-25.9,11.3-25.9,27.8c0,16.5,10.8,27.8,25.9,27.8
			c11,0,19.8-3.6,25.7-10.5L492,841c-7.9,10.3-20.5,16.2-37,16.2c-25.9,0-43.9-17.9-43.9-44.1c0-26.4,18-44.4,43.9-44.4
			C470.7,768.8,483,773.9,491,783z"/>
		<path d="M561,851c-6.9,4.1-14.1,6.4-21.5,6.4c-13.1,0-24.4-7.5-24.4-25.4v-45.2h-12.3v-14.1h12.3v-23.9h18.7v23.9h25.7v14.1h-25.7
			v41.8c0,9,3.4,11.8,9.3,11.8c3.9,0,8-1.3,13.1-3.8L561,851z"/>
		<path d="M635.8,788.3c14.4,3.4,25.1,14.6,25.1,31.8c0,22.4-18,38.2-45.9,38.2c-17.2,0-35.2-6.1-46.3-15.2l15.1-28.8
			c8.7,10.6,18.2,16,28.2,16c7.9,0,11.8-3.3,11.8-10c0-6.7-3.9-10-11.8-10h-20.8v-19.8l21.8-20.8h-38.2v-27.5h80.9v21.3l-24.7,23.7
			L635.8,788.3z"/>
		<path d="M723.4,741.8c37.8,0,62.4,22.4,62.4,57.3s-25.1,57.5-63.9,57.5h-49.8V741.8H723.4z M710.1,827.1h14.2
			c13.8,0,22.6-10.8,22.6-27.7c0-17-9.7-28.2-24.4-28.2h-12.4V827.1z"/>
	</g>
</g>
</svg>


