<!-- Generator: Adobe Illustrator 19.2.1, SVG Export Plug-In  -->
<svg version="1.1"
	 xmlns="http://www.w3.org/2000/svg" xmlns:xlink="http://www.w3.org/1999/xlink" xmlns:a="http://ns.adobe.com/AdobeSVGViewerExtensions/3.0/"
	 x="0px" y="0px" width="851.6px" height="746.6px" viewBox="0 0 851.6 746.6"
	 style="overflow:scroll;enable-background:new 0 0 851.6 746.6;" xml:space="preserve">
<style type="text/css">
	.st0{fill:#FFFFFF;}
</style>
<defs>
</defs>
<g>
	<g>
		<path class="st0" d="M0,746.6c71-41.5,141.9-83,212.9-124.4V128.4L0,256.8V746.6z"/>
		<path class="st0" d="M760.5,195.6L425.8,0L212.9,128.4c111.2,64,222.4,127.9,333.6,191.9c57,32.8,92.2,93.6,92.2,159.4l0,0
			c0,63.1-68.5,102.5-123,70.6l-89.9-52.5v248.9l425.8-248.9V354.3C851.6,289,816.9,228.6,760.5,195.6z"/>
	</g>
	<g>
		<path class="st0" d="M717,683.8c12.9,3.1,22.5,13.1,22.5,28.5c0,20.1-16.2,34.2-41.2,34.2c-15.4,0-31.6-5.4-41.6-13.7l13.5-25.9
			c7.8,9.6,16.3,14.4,25.3,14.4c7.1,0,10.6-2.9,10.6-9c0-6-3.5-9-10.6-9h-18.7v-17.8l19.5-18.7h-34.2v-24.7h72.6v19.1l-22.2,21.3
			L717,683.8z"/>
		<path class="st0" d="M795.6,642.1c34,0,56,20.1,56,51.4s-22.5,51.6-57.3,51.6h-44.7v-103H795.6z M783.7,718.7h12.8
			c12.3,0,20.3-9.7,20.3-24.8c0-15.3-8.7-25.3-21.9-25.3h-11.2V718.7z"/>
	</g>
</g>
</svg>





