<!-- Generator: Adobe Illustrator 22.1.0, SVG Export Plug-In  -->
<svg version="1.1"
	 xmlns="http://www.w3.org/2000/svg" xmlns:xlink="http://www.w3.org/1999/xlink" xmlns:a="http://ns.adobe.com/AdobeSVGViewerExtensions/3.0/"
	 x="0px" y="0px" width="337.7px" height="324.6px" viewBox="0 0 337.7 324.6"
	 style="overflow:scroll;enable-background:new 0 0 337.7 324.6;" xml:space="preserve">
<style type="text/css">
	.st0{fill:none;stroke:#F9F9F9;stroke-width:2;stroke-miterlimit:10;}
</style>
<defs>
</defs>
<g>
	<g>
		<g>
			<g>
				<polygon class="st0" points="1.9,226.5 1.9,162.3 57.6,194.4 57.6,194.4 				"/>
			</g>
			<g>
				<polygon class="st0" points="57.6,194.3 57.6,130.2 57.6,130.2 113.2,162.2 				"/>
				<polygon class="st0" points="57.6,194.4 57.6,194.3 113.2,162.2 113.2,162.3 113.2,226.5 				"/>
			</g>
			<g>
				<polygon class="st0" points="57.6,322.9 57.6,258.6 113.2,290.7 113.2,290.8 				"/>
				<polygon class="st0" points="57.6,258.6 57.6,258.6 113.1,226.5 113.2,226.5 113.2,290.7 				"/>
				<polygon class="st0" points="57.6,258.6 57.6,194.4 113.1,226.5 				"/>
				<polygon class="st0" points="2,226.5 57.6,194.4 57.6,258.6 57.5,258.6 				"/>
			</g>
		</g>
	</g>
	<g>
		<g>
			<g>
				<polygon class="st0" points="57.6,130.2 57.6,65.9 113.2,98 113.2,98.1 				"/>
				<polygon class="st0" points="57.6,65.9 57.6,65.9 113.1,33.8 113.2,33.8 113.2,98 				"/>
				<polygon class="st0" points="1.9,98.1 1.9,98 57.5,65.9 57.6,65.9 57.6,130.2 				"/>
			</g>
			<g>
				<polygon class="st0" points="1.9,226.5 1.9,162.3 57.6,194.4 57.6,194.4 				"/>
			</g>
			<g>
				<polygon class="st0" points="57.6,130.2 113.2,98.1 113.2,162.2 113.2,162.2 				"/>
				<polygon class="st0" points="57.6,194.3 57.6,130.2 57.6,130.2 113.2,162.2 				"/>
				<polygon class="st0" points="57.6,194.4 57.6,194.3 113.2,162.2 113.2,162.3 113.2,226.5 				"/>
			</g>
		</g>
	</g>
	<g>
		<g>
			<g>
				<polygon class="st0" points="113.2,226.5 113.2,162.3 168.8,194.4 168.8,194.4 				"/>
				<polygon class="st0" points="113.2,162.3 113.2,162.2 168.8,130.1 168.8,130.2 168.8,194.4 				"/>
				<polygon class="st0" points="57.6,194.4 57.6,194.3 113.2,162.2 113.2,162.3 113.2,226.5 				"/>
			</g>
			<g>
				<polygon class="st0" points="168.8,194.3 168.8,130.2 168.9,130.2 224.4,162.2 				"/>
				<polygon class="st0" points="168.8,194.4 168.8,194.3 224.4,162.2 224.5,162.3 224.5,226.5 				"/>
			</g>
			<g>
				<polygon class="st0" points="168.8,322.9 168.8,258.6 224.4,290.7 224.4,290.8 				"/>
				<polygon class="st0" points="168.8,258.6 168.8,258.6 224.4,226.5 224.4,226.5 224.4,290.7 				"/>
				<polygon class="st0" points="168.8,258.6 168.8,194.4 224.4,226.5 				"/>
				<polygon class="st0" points="113.3,226.5 168.8,194.4 168.8,258.6 168.8,258.6 				"/>
				<polygon class="st0" points="113.2,290.7 113.2,226.5 113.3,226.5 168.8,258.6 				"/>
			</g>
		</g>
	</g>
	<g>
		<g>
			<g>
				<polygon class="st0" points="168.8,130.2 168.8,65.9 224.4,98 224.4,98.1 				"/>
				<polygon class="st0" points="168.8,65.9 168.8,65.9 224.4,33.8 224.4,33.8 224.4,98 				"/>
				<polygon class="st0" points="113.3,33.8 168.8,1.7 168.8,65.9 168.8,65.9 				"/>
				<polygon class="st0" points="113.2,98 113.2,33.8 113.3,33.8 168.8,65.9 				"/>
				<polygon class="st0" points="113.2,98.1 113.2,98 168.8,65.9 168.8,65.9 168.8,130.2 				"/>
			</g>
			<g>
				<polygon class="st0" points="113.2,226.5 113.2,162.3 168.8,194.4 168.8,194.4 				"/>
				<polygon class="st0" points="113.2,162.3 113.2,162.2 168.8,130.1 168.8,130.2 168.8,194.4 				"/>
				<polygon class="st0" points="113.2,162.2 113.2,98.1 168.8,130.1 				"/>
				<polygon class="st0" points="57.6,130.2 113.2,98.1 113.2,162.2 113.2,162.2 				"/>
				<polygon class="st0" points="57.6,194.4 57.6,194.3 113.2,162.2 113.2,162.3 113.2,226.5 				"/>
			</g>
			<g>
				<polygon class="st0" points="168.9,130.2 224.5,98.1 224.5,162.2 224.4,162.2 				"/>
				<polygon class="st0" points="168.8,194.3 168.8,130.2 168.9,130.2 224.4,162.2 				"/>
				<polygon class="st0" points="168.8,194.4 168.8,194.3 224.4,162.2 224.5,162.3 224.5,226.5 				"/>
			</g>
		</g>
	</g>
	<g>
		<g>
			<g>
				<polygon class="st0" points="224.5,226.5 224.5,162.3 280.1,194.4 280.1,194.4 				"/>
				<polygon class="st0" points="224.5,162.3 224.5,162.2 280,130.1 280.1,130.2 280.1,194.4 				"/>
				<polygon class="st0" points="168.8,194.4 168.8,194.3 224.4,162.2 224.5,162.3 224.5,226.5 				"/>
			</g>
			<g>
				<polygon class="st0" points="280.1,194.3 280.1,130.2 280.1,130.2 335.7,162.2 				"/>
			</g>
			<g>
				<polygon class="st0" points="280.1,322.9 280.1,258.6 335.7,290.7 335.7,290.8 				"/>
				<polygon class="st0" points="224.5,226.5 280.1,194.4 280.1,258.6 280,258.6 				"/>
				<polygon class="st0" points="224.4,290.7 224.4,226.5 224.5,226.5 280,258.6 				"/>
				<polygon class="st0" points="224.4,290.8 224.4,290.7 280,258.6 280.1,258.6 280.1,322.9 				"/>
			</g>
		</g>
	</g>
	<g>
		<g>
			<g>
				<polygon class="st0" points="280.1,130.2 280.1,65.9 335.7,98 335.7,98.1 				"/>
				<polygon class="st0" points="224.5,33.8 280.1,1.7 280.1,65.9 280,65.9 				"/>
				<polygon class="st0" points="224.4,98 224.4,33.8 224.5,33.8 280,65.9 				"/>
				<polygon class="st0" points="224.4,98.1 224.4,98 280,65.9 280.1,65.9 280.1,130.2 				"/>
			</g>
			<g>
				<polygon class="st0" points="224.5,226.5 224.5,162.3 280.1,194.4 280.1,194.4 				"/>
				<polygon class="st0" points="224.5,162.3 224.5,162.2 280,130.1 280.1,130.2 280.1,194.4 				"/>
				<polygon class="st0" points="224.5,162.2 224.5,98.1 280,130.1 				"/>
				<polygon class="st0" points="168.9,130.2 224.5,98.1 224.5,162.2 224.4,162.2 				"/>
				<polygon class="st0" points="168.8,194.4 168.8,194.3 224.4,162.2 224.5,162.3 224.5,226.5 				"/>
			</g>
		</g>
	</g>
</g>
</svg>
